<?xml version="1.0" ?><svg width="30px" height="30px" viewBox="0 0 30 30" xmlns="http://www.w3.org/2000/svg"><defs><style>.cls-1{fill:none;stroke:#000;stroke-linecap:round;stroke-linejoin:round;}</style></defs><title/><g data-name="Layer 2" id="Layer_2"><g id="Interface-Light"><g id="interface-light-rating-star-1"><rect class="cls-1" height="29" rx="3" width="29" x="0.5" y="0.5"/><path class="cls-1" d="M15.68,8.49,17,12.12a.74.74,0,0,0,.65.5l3.69.15a.76.76,0,0,1,.42,1.35l-2.9,2.39a.78.78,0,0,0-.25.8l1,3.72a.73.73,0,0,1-1.09.84L15.4,19.72a.69.69,0,0,0-.8,0l-3.08,2.15A.73.73,0,0,1,10.43,21l1-3.72a.78.78,0,0,0-.25-.8l-2.9-2.39a.76.76,0,0,1,.42-1.35l3.69-.15a.74.74,0,0,0,.65-.5l1.28-3.63A.72.72,0,0,1,15.68,8.49Z"/></g></g></g></svg>